<?xml version="1.0" encoding="utf-8"?>
<!-- Generator: Adobe Illustrator 22.1.0, SVG Export Plug-In . SVG Version: 6.00 Build 0)  -->
<svg version="1.1" id="Layer_1" xmlns="http://www.w3.org/2000/svg" xmlns:xlink="http://www.w3.org/1999/xlink" x="0px" y="0px"
	 viewBox="0 0 500 500" style="enable-background:new 0 0 500 500;" xml:space="preserve">
<style type="text/css">
	.st0{opacity:0.3;}
	.st1{fill:#EBEBEB;}
	.st2{fill:#DBDBDB;}
	.st3{fill:#263238;}
	.st4{fill:#455A64;}
	.st5{fill:#FFC727;}
	.st6{fill:#C7C7C7;}
	.st7{opacity:0.2;enable-background:new    ;}
	.st8{opacity:0.2;}
	.st9{fill:#EB9481;}
	.st10{fill:#A6A6A6;}
	.st11{opacity:0.1;enable-background:new    ;}
	.st12{fill:#FF9CBD;}
	.st13{fill:#FFFFFF;}
	.st14{opacity:0.1;}
	.st15{fill:#37474F;}
</style>
<g id="freepik--background-complete--inject-31" class="st0">
	<polygon class="st1" points="47.5,250 98.1,249.8 148.7,249.7 250,249.5 351.3,249.7 401.9,249.8 452.5,250 401.9,250.2 
		351.3,250.3 250,250.4 148.7,250.3 98.1,250.2 	"/>
	<polygon class="st1" points="47.5,218.3 98.1,218 148.7,217.9 250,217.8 351.3,217.9 401.9,218 452.5,218.3 401.9,218.5 
		351.3,218.6 250,218.7 148.7,218.6 98.1,218.5 	"/>
	<polygon class="st1" points="47.5,186.5 98.1,186.3 148.7,186.2 250,186.1 351.3,186.2 401.9,186.3 452.5,186.5 401.9,186.8 
		351.3,186.8 250,187 148.7,186.8 98.1,186.8 	"/>
	<polygon class="st1" points="47.5,154.8 98.1,154.6 148.7,154.5 250,154.4 351.3,154.5 401.9,154.6 452.5,154.8 401.9,155 
		351.3,155.1 250,155.3 148.7,155.1 98.1,155 	"/>
	<polygon class="st1" points="47.5,123.1 98.1,122.9 148.7,122.8 250,122.6 351.3,122.8 401.9,122.9 452.5,123.1 401.9,123.3 
		351.3,123.4 250,123.6 148.7,123.4 98.1,123.3 	"/>
	<polygon class="st1" points="47.5,91.4 98.1,91.2 148.7,91.1 250,90.9 351.3,91.1 401.9,91.2 452.5,91.4 401.9,91.6 351.3,91.7 
		250,91.8 148.7,91.7 98.1,91.6 	"/>
	<polygon class="st1" points="47.5,281.7 98.1,281.5 148.7,281.4 250,281.3 351.3,281.4 401.9,281.5 452.5,281.7 401.9,281.9 
		351.3,282 250,282.2 148.7,282 98.1,281.9 	"/>
	<polygon class="st1" points="47.5,313.5 98.1,313.3 148.7,313.2 250,313 351.3,313.2 401.9,313.2 452.5,313.5 401.9,313.7 
		351.3,313.8 250,313.9 148.7,313.8 98.1,313.7 	"/>
	<polygon class="st1" points="47.5,345.2 98.1,345 148.7,344.9 250,344.8 351.3,344.9 401.9,345 452.5,345.2 401.9,345.4 
		351.3,345.5 250,345.7 148.7,345.5 98.1,345.4 	"/>
	<polygon class="st1" points="47.5,377 98.1,376.7 148.7,376.7 250,376.5 351.3,376.7 401.9,376.7 452.5,377 401.9,377.2 
		351.3,377.3 250,377.4 148.7,377.3 98.1,377.2 	"/>
	<rect x="47.5" y="281.3" class="st2" width="405" height="31.8"/>
	<polygon class="st1" points="284.6,56.7 284.8,93.4 284.9,121.1 285.1,296.5 284.9,351.7 284.8,379.3 284.6,406.9 284.3,379.3 
		284.3,351.7 284.1,296.5 284.3,121.1 284.3,93.4 	"/>
	<polygon class="st1" points="250,56.7 250.2,93.4 250.3,121.1 250.5,296.5 250.3,351.7 250.3,379.3 250,406.9 249.8,379.3 
		249.7,351.7 249.5,296.5 249.7,121.1 249.8,93.4 	"/>
	<polygon class="st1" points="215.4,56.7 215.7,93.4 215.8,121.1 215.9,296.5 215.8,351.7 215.7,379.3 215.4,406.9 215.2,379.3 
		215.1,351.7 214.9,296.5 215.1,121.1 215.2,93.4 	"/>
	<polygon class="st1" points="180.8,56.7 181.1,93.4 181.2,121.1 181.3,296.5 181.2,351.7 181.1,379.3 180.8,406.9 180.6,379.3 
		180.5,351.7 180.3,296.5 180.5,121.1 180.6,93.4 	"/>
	<polygon class="st1" points="388.3,56.7 388.6,93.4 388.7,121.1 388.8,296.5 388.7,351.7 388.6,379.3 388.3,406.9 388.1,379.3 
		388,351.7 387.8,296.5 388,121.1 388.1,93.4 	"/>
	<polygon class="st1" points="353.8,56.7 354,93.4 354.1,121.1 354.3,296.5 354.1,351.7 354,379.3 353.8,406.9 353.5,379.3 
		353.4,351.7 353.3,296.5 353.4,121.1 353.5,93.4 	"/>
	<polygon class="st1" points="319.2,56.7 319.4,93.4 319.5,121.1 319.7,296.5 319.5,351.7 319.4,379.3 319.2,406.9 318.9,379.3 
		318.8,351.7 318.7,296.5 318.8,121.1 318.9,93.4 	"/>
	<polygon class="st1" points="422.9,56.7 423.2,93.4 423.3,121.1 423.4,296.5 423.3,351.7 423.2,379.3 422.9,406.9 422.7,379.3 
		422.6,351.7 422.4,296.5 422.6,121.1 422.7,93.4 	"/>
	<polygon class="st1" points="388.3,56.7 388.6,93.4 388.7,121.1 388.8,296.5 388.7,351.7 388.6,379.3 388.3,406.9 388.1,379.3 
		388,351.7 387.8,296.5 388,121.1 388.1,93.4 	"/>
	<polygon class="st1" points="146.3,56.7 146.5,93.4 146.6,121.1 146.8,296.5 146.6,351.7 146.5,379.3 146.3,406.9 146,379.3 
		145.9,351.7 145.8,296.5 145.9,121.1 146,93.4 	"/>
	<polygon class="st1" points="111.7,56.7 111.9,93.4 112,121.1 112.2,296.5 112,351.7 111.9,379.3 111.7,406.9 111.4,379.3 
		111.3,351.7 111.2,296.5 111.3,121.1 111.4,93.4 	"/>
	<polygon class="st1" points="77.1,56.7 77.3,93.4 77.4,121.1 77.6,296.5 77.4,351.7 77.3,379.3 77.1,406.9 76.8,379.3 76.8,351.7 
		76.6,296.5 76.8,121.1 76.8,93.4 	"/>
	<polygon class="st1" points="52.7,183.7 215.4,183.7 220.6,61.7 47.5,61.7 	"/>
	<path class="st2" d="M130.6,172.5H64.8l-4.3-99h70.1V172.5z M65.8,171.5h63.8v-97h-68L65.8,171.5z"/>
	<path class="st2" d="M124.7,139.7h-6.8V104h6.8V139.7z M118.8,138.7h4.8V105h-4.8V138.7z"/>
	<path class="st2" d="M203.3,172.5h-65.8v-99h70.1L203.3,172.5z M138.5,171.5h63.8l4.2-97h-68L138.5,171.5z"/>
	<path class="st2" d="M150.3,139.7h-6.8V104h6.8V139.7z M144.4,138.7h4.8V105h-4.8V138.7z"/>
</g>
<g id="freepik--Shadow--inject-31" class="st0">
	<ellipse class="st1" cx="250" cy="434" rx="199.7" ry="13.3"/>
</g>
<g id="freepik--Stove--inject-31" class="st0">
	<polygon class="st3" points="249.3,404.6 247.5,403.6 252.8,393.8 335.1,393.8 340.5,403.6 338.7,404.6 334,395.8 254,395.8 	"/>
	<polygon class="st3" points="263.8,404.4 261.9,403.7 265.6,393.8 322.4,393.8 326.1,403.7 324.2,404.4 321,395.8 267,395.8 	"/>
	<polygon class="st3" points="435.2,404.6 430.4,395.8 350.5,395.8 345.8,404.6 344,403.6 349.3,393.8 431.6,393.8 436.9,403.6 	"/>
	<polygon class="st3" points="420.7,404.4 417.5,395.8 363.5,395.8 360.3,404.4 358.4,403.7 362.1,393.8 418.9,393.8 422.5,403.7 	
		"/>
	<rect x="243.5" y="401.9" class="st4" width="198" height="5.2"/>
</g>
<g id="freepik--Table--inject-31" class="st0">
	<polygon class="st3" points="44.2,406.9 95.7,406.7 147.1,406.6 250,406.4 352.9,406.6 404.3,406.7 455.8,406.9 404.3,407.2 
		352.9,407.3 250,407.4 147.1,407.3 95.7,407.2 	"/>
</g>
<g id="freepik--Shelf--inject-31" class="st0">
	<rect x="265.2" y="123.2" class="st5" width="160" height="12.3"/>
	<rect x="342.8" y="157.8" class="st6" width="4.8" height="60"/>
	<path class="st6" d="M358,215.2h-25.7l-1.3,35.9h28.4L358,215.2z M339.8,246.9h-2.7v-26.5h2.7V246.9z M346.5,246.9h-2.7v-26.5h2.7
		V246.9z M353.2,246.9h-2.7v-26.5h2.7V246.9z"/>
	<polygon class="st3" points="350.3,163.7 340.3,163.7 339.3,126.5 351.3,126.5 	"/>
	<circle class="st5" cx="345.3" cy="131.3" r="1.6"/>
	<rect x="393.1" y="157.8" class="st6" width="4.8" height="48.3"/>
	<path class="st6" d="M409,220.1c0,10.1-6.6,19.4-13.6,19.4s-13.6-9.3-13.6-19.4s8.1-15.1,13.6-15.1S409,210,409,220.1z"/>
	<polygon class="st3" points="400.6,163.7 390.6,163.7 389.6,126.5 401.6,126.5 	"/>
	<circle class="st5" cx="395.6" cy="131.3" r="1.6"/>
	<path class="st6" d="M265.1,178.4v59h36.1v-79.8h-7.5v20.8L265.1,178.4z M270.2,186.6c0-1.2,1-2.2,2.1-2.2c1.2,0,2.2,1,2.2,2.1
		c0,1.2-1,2.2-2.1,2.2c0,0,0,0,0,0C271.2,188.7,270.2,187.8,270.2,186.6z"/>
	<polygon class="st3" points="292.5,163.7 302.4,163.7 303.4,126.5 291.5,126.5 	"/>
	<circle class="st5" cx="297.4" cy="131.3" r="1.6"/>
	<rect x="316.7" y="73.5" class="st5" width="77.7" height="49.7"/>
	<rect x="316.7" y="73.5" class="st7" width="77.7" height="49.7"/>
	<path class="st5" d="M414.9,91.7c-3.9,0-7.5,3.3-11.1,3.3h-9.5v6.7h9.5c3.6,0,7.2,3.3,11.1,3.3c4.6,0,8-2.6,8-6.7
		S419.5,91.7,414.9,91.7z M416,100.8c-1.4,0-2.5-1.1-2.5-2.5c0-1.4,1.1-2.5,2.5-2.5c1.4,0,2.5,1.1,2.5,2.5c0,0,0,0,0,0
		C418.5,99.7,417.4,100.8,416,100.8L416,100.8z"/>
	<g class="st8">
		<path d="M414.9,91.7c-3.9,0-7.5,3.3-11.1,3.3h-9.5v6.7h9.5c3.6,0,7.2,3.3,11.1,3.3c4.6,0,8-2.6,8-6.7S419.5,91.7,414.9,91.7z
			 M416,100.8c-1.4,0-2.5-1.1-2.5-2.5c0-1.4,1.1-2.5,2.5-2.5c1.4,0,2.5,1.1,2.5,2.5c0,0,0,0,0,0C418.5,99.7,417.4,100.8,416,100.8
			L416,100.8z"/>
	</g>
	<path class="st4" d="M337.6,99.1c0,0-10.2,19.1-12.2,21.7s-6.8,2.4-9.8,2.4h-24.4c-3,0-7.8,0.2-9.8-2.4s-12.2-21.7-12.2-21.7H337.6
		z"/>
</g>
<g id="freepik--Character--inject-31" class="st0">
	<path class="st3" d="M145.5,202.6c-7-6.7-30.5-6.2-40.6,5c-13.9,15.4,4.4,45.9,26.5,38.3S150.9,207.8,145.5,202.6z"/>
	<path class="st3" d="M106.4,237.8c-3.9-5.7-6.9-12.1-7.6-18.7c-0.9-6.5,2.4-12.8,8.2-15.9c2.9-1.6,6-2.9,9.2-3.7
		c3.2-0.9,6.5-1.5,9.8-1.6c6.8-0.4,13.6,1.3,19.5,4.7c-5.1-4.8-12.4-7.3-19.5-7.4c-3.6-0.1-7.2,0.3-10.7,1.2
		c-3.5,0.8-6.9,2.1-10.1,3.9c-3.3,1.9-6,4.7-7.7,8.1c-1.6,3.4-2.1,7.3-1.4,11C97.5,226.6,101.4,232.9,106.4,237.8z"/>
	<path class="st9" d="M172.9,248.3c16.9,20.3,30.9,46.3,38.4,52.5c3.9,3.3,61,8.3,67.5,9.6c9.9,1.9-4.1,52.5-10.7,50.6
		c-4.3-1.2-69.9-10.3-82-23.9c-9.3-10.5-23.9-55.8-27.8-75.7C153.9,239.3,166.1,240.2,172.9,248.3z"/>
	<path class="st9" d="M292.5,363.5c-11.3-0.1-22.6-1.6-33.5-4.5c-6-1.7-3-48.8,3.2-50.6c19-5.5,45.1-1.6,53.8,5.4
		S303.9,363.5,292.5,363.5z"/>
	<path class="st5" d="M433.2,282.2c-10.6,6.3-23.9,9.1-35.7,12.5c-6.5,1.8-13,3.5-19.5,5.1c-3,0.7-6,1.4-9,2.1
		c-1.8,0.4-4.7,1.6-6.6,1.1c-0.4-0.1-0.8-0.5-0.8-0.9c0-0.1,0-0.3,0-0.4c-0.1-1.1,31-10.2,40-21.6c4.5-5.8,8.5-15.3,4.2-22.3
		c-2.6-4.2-7.9-4.8-12.3-3.6c-4.6,1.3-9.4,6.5-5.1,8.7c0.4-0.8,1.8-0.4,1.5,0.5c-0.9,2.3-5.7,3.6-8.3,0.6
		c-4.1-4.8-1.2-12.4,2.1-16.1c9.2-10.4,31.5-10.2,38.9,3.5c4.3-3.2,10.1-1.9,12.2,3.1c4.1-3.8,10,0.5,11,5.7
		C447.6,269.5,440.6,277.9,433.2,282.2z"/>
	<path class="st5" d="M378.4,248.2c-1-1.2-10.1,0.9-7.9,5.2C372.6,257.7,379.9,249.9,378.4,248.2z"/>
	<path class="st5" d="M373.3,259.5c-1.2-0.4-5.3,4.9-2.5,6.4S374.4,259.9,373.3,259.5z"/>
	<path class="st5" d="M423.7,248c1.2-0.5,0.5-7.2-2.6-6.4S422.7,248.4,423.7,248z"/>
	<path class="st5" d="M370.4,257c-0.5-0.6-2.8,0.2-1.9,1.5S371,257.8,370.4,257z"/>
	<path class="st5" d="M422.5,239.2c0.8-0.2,1-2.7-0.6-2.4S421.7,239.4,422.5,239.2z"/>
	<polygon class="st10" points="341.3,312.5 254.1,341.2 250.9,330 339,304.5 	"/>
	<path class="st4" d="M442.6,275.1c0,0,2.3,23.4-5.9,25.7l-43.6,12.4l-43.6,12.4c-8.2,2.3-18.5-18.8-18.5-18.8L442.6,275.1z"/>
	<path class="st9" d="M267.4,307.3c0,0,46.6-18.9,45.6,1.3c-0.3,6-8.7,30.2-13.6,28.6c-6.3-2-4.7-12.8-2.6-19.4
		c0,0-13.6,8.3-22.2,0.5C271.3,315.3,268.8,311.5,267.4,307.3z"/>
	<path class="st3" d="M313,306.9c0.2,2.4,0,4.7-0.5,7c-0.5,2.3-1.1,4.6-1.9,6.9c-1.5,4.5-3.4,8.9-5.6,13.1c-0.6,1.1-1.4,2.1-2.2,3
		c-0.5,0.5-1.2,0.9-1.9,1.2c-0.4,0.1-0.8,0.2-1.2,0.2c-0.4,0-0.8-0.1-1.2-0.2c-1.3-0.5-2.5-1.4-3.2-2.6c-0.6-1.1-1.1-2.4-1.3-3.6
		c-0.4-2.4-0.3-4.9,0.2-7.3c0.4-2.4,1-4.7,1.8-7l1.2,0.9c-1.6,0.9-3.3,1.6-5,2.2c-1.7,0.6-3.5,1-5.3,1.2c-1.8,0.2-3.6,0.1-5.4-0.2
		c-1.8-0.3-3.5-1-5-1.9c1.6,0.7,3.3,1.2,5,1.4c1.7,0.1,3.5,0,5.1-0.3c1.7-0.3,3.4-0.8,5-1.4c1.6-0.6,3.1-1.4,4.6-2.3l1.8-1.1
		l-0.5,2.1c-0.6,2.2-1.1,4.5-1.5,6.7c-0.4,2.2-0.4,4.5-0.1,6.7c0.4,2.1,1.4,4.2,3.1,4.7c1.5,0.6,3.1-1.4,4.2-3.3
		c1.2-2,2.2-4,3.2-6.1c1-2.1,2-4.2,2.8-6.4C311,316,312.7,311.6,313,306.9z"/>
	<path class="st9" d="M300.4,305.8c-5,3,1.4,7.1,1.4,7.1s-10.6-3.7-14.5,1.4c-3.8,4.9,4.1,9.6,4.7,10c-0.6-0.2-10.4-3.4-13.8,2.1
		c-3.5,5.7,5.2,9.1,5.8,9.3c-0.6,0-8.4-0.1-10,4.7c-2.8,8.2,17.1,8.9,21.6,14.2c0,0-3.7,8.6-3.9,8.9c0,0,14.5,1.2,21.3-5.4
		c2.1-1.9,2.6-5.1,1.1-7.5c0,0,6.1,1,8.9-3.2c1.4-2.2-0.8-6.4-0.8-6.4s4.9,0.6,7.2-3.3c1.8-3.1-0.7-6.9-0.7-6.9s5-1.6,5.8-5.4
		C336.1,317.7,311,299.4,300.4,305.8z"/>
	<path class="st3" d="M328.4,330.1c0,0,0.1,0,0.1,0s0-0.1,0-0.1c-6.8-8-16.7-14.8-27-17.3c-0.3-0.1-0.6,0.4-0.3,0.6
		C311.4,317.9,319.9,322.8,328.4,330.1z"/>
	<path class="st3" d="M322.4,341c0.1,0.1,0.2-0.1,0.1-0.2c-7-8.2-18.4-15.5-30.6-17c-0.4,0-0.8,0.3-0.4,0.4
		C299.6,325.9,314.8,334.5,322.4,341z"/>
	<path class="st3" d="M283.1,335.9c11.6,1.9,21.5,7.4,30.8,14.4c0.1,0.1,0.2-0.1,0.2-0.2c-3.6-4.7-10-8.6-15.3-11.2
		c-4.8-2.5-10.2-3.7-15.6-3.5C282.9,335.5,282.8,335.8,283.1,335.9z"/>
	<path class="st3" d="M301.8,313c-2.1-0.5-4.2-0.9-6.4-1c-2.1-0.2-4.2,0.1-6.1,1c-0.9,0.4-1.5,1.2-1.9,2.1c-0.3,0.9-0.4,1.9-0.3,2.9
		c0.5,1.9,1.8,3.5,3.5,4.4l4.1,2.4l-4.7-0.8c-2.1-0.4-4.2-0.4-6.3-0.1c-2,0.2-3.8,1.2-5,2.8c-1.1,1.5-1,3.6,0.3,5
		c1.4,1.5,3.1,2.6,5.1,3.2l5.3,1.9l-5.6-0.1c-1.6,0-3.1,0.2-4.6,0.5c-1.4,0.3-2.8,1-3.8,2.1c-0.9,1-1.2,2.4-0.7,3.7
		c0.8,1.3,1.9,2.3,3.2,3c2.9,1.6,5.8,2.9,8.9,4c1.5,0.6,3.1,1.2,4.6,1.9c1.6,0.6,3,1.5,4.1,2.7c-1.3-1-2.7-1.8-4.3-2.3
		c-1.5-0.6-3.1-1-4.7-1.5c-3.2-0.9-6.3-2.1-9.3-3.6c-1.6-0.8-3-2-3.9-3.6c-0.9-1.8-0.5-4,0.8-5.5c1.3-1.3,2.9-2.3,4.7-2.7
		c1.7-0.4,3.4-0.7,5.1-0.7l-0.3,1.8c-2.3-0.7-4.4-2-6-3.8c-0.9-1-1.4-2.3-1.5-3.6c0-1.3,0.4-2.6,1.1-3.7c1.5-2,3.8-3.3,6.3-3.5
		c2.3-0.3,4.6-0.2,6.9,0.2l-0.6,1.6c-2.1-1.2-3.6-3.3-4-5.7c-0.1-1.2,0-2.4,0.5-3.5c0.5-1.1,1.4-2.1,2.5-2.6
		c2.1-0.8,4.4-1.1,6.6-0.6C297.7,311.7,299.8,312.2,301.8,313z"/>
	<path class="st5" d="M257.3,304.2l-8.2,55.1c0,0-58.6-10-68.2-21s-19.3-54.7-24-76.8s7.5-28.9,21.1-10.6s28.9,46.2,32.5,47.9
		S257.3,304.2,257.3,304.2z"/>
	<path class="st11" d="M233.7,356.3c-18.1-3.8-46.4-10.7-52.8-18c-9.6-11-19.3-54.7-24-76.7c-2.4-11.2-0.4-18.5,4-20.6
		C171.1,256.7,212.6,321.1,233.7,356.3z"/>
	<path class="st5" d="M264.1,303.7c-0.1-0.3-16.8-3.2-16.8-3.2s-15,26.5-15,29.7s-0.3,27.3-0.1,27.6s20.2,5.5,20.6,5
		s1.8-26.6,1.8-28.6S264.1,303.7,264.1,303.7z"/>
	<path class="st7" d="M264.1,303.7c-0.1-0.3-16.8-3.2-16.8-3.2s-15,26.5-15,29.7s-0.3,27.3-0.1,27.6s20.2,5.5,20.6,5
		s1.8-26.6,1.8-28.6S264.1,303.7,264.1,303.7z"/>
	<path class="st5" d="M201.6,407.1l-12-65.6c0,0,12-11,10.8-30.6c-0.7-10.6-19.8-48.5-30.1-61.7c-9.6-12.4-30.5-11.8-43.4,3.8
		c-41.5,50.4-54.4,117.2-59.7,154.1H201.6z"/>
	<path class="st3" d="M140.6,251.9c3.4,3.9,7.4,7.2,12,9.7c4.5,2.5,9.5,4,14.6,4.3c2.6,0.1,5.1-0.1,7.6-0.5l1.9-0.4h0.2
		c0.1,0,0.2,0,0.3,0.1c0,0,0.1,0.1,0.1,0.1l0.1,0.1c0.1,0.1,0.1,0.2,0.2,0.2l0.3,0.4c0.2,0.3,0.3,0.6,0.4,0.9
		c0.6,1.2,1.1,2.4,1.5,3.6c1.9,4.8,3.5,9.8,4.9,14.8c1.4,5,2.5,10.1,3.3,15.2c0.8,5.1,1.1,10.3,1,15.5c-0.1,5.2-1,10.4-2.8,15.4
		c-1.8,5-4.9,9.3-9.1,12.5l0.2-0.4l3.6,31.8l3.4,31.8l-4-31.7l-3.9-31.8v-0.3l0.2-0.1c4.1-3.1,7.1-7.4,8.8-12.2
		c1.7-4.8,2.6-9.9,2.7-15c0.2-10.3-1.6-20.5-4.2-30.5c-1.3-5-3-9.9-4.8-14.7c-0.5-1.2-1-2.4-1.5-3.5c-0.1-0.3-0.3-0.6-0.4-0.9
		c-0.1-0.1-0.1-0.3-0.2-0.4s-0.1-0.1-0.1-0.2l0,0l0,0c0.1,0,0.1,0.1,0.2,0.1l0,0l-1.9,0.4c-2.6,0.5-5.2,0.6-7.8,0.4
		c-5.2-0.4-10.3-2-14.9-4.6C147.8,259.4,143.8,256,140.6,251.9z"/>
	<path class="st3" d="M153,292.3c0,1.7-1.3,3-3,3s-3-1.3-3-3s1.3-3,3-3S153,290.7,153,292.3z"/>
	<path class="st3" d="M181.3,293.9c0,1.7-1.3,3-3,3s-3-1.3-3-3s1.3-3,3-3S181.3,292.2,181.3,293.9z"/>
	<path class="st3" d="M149,314.7c0,1.7-1.3,3-3,3s-3-1.3-3-3s1.3-3,3-3S149,313.1,149,314.7z"/>
	<path class="st3" d="M139.6,341.5c0,1.7-1.3,3-3,3s-3-1.3-3-3s1.3-3,3-3S139.6,339.9,139.6,341.5z"/>
	<path class="st3" d="M138.6,367.9c0,1.7-1.3,3-3,3s-3-1.3-3-3s1.3-3,3-3S138.6,366.2,138.6,367.9z"/>
	<path class="st3" d="M179.5,317c0,1.7-1.3,3-3,3s-3-1.3-3-3s1.3-3,3-3S179.5,315.3,179.5,317z"/>
	<path class="st3" d="M169.9,367.3c0,1.7-1.3,3-3,3s-3-1.3-3-3s1.3-3,3-3S169.9,365.7,169.9,367.3z"/>
	<circle class="st3" cx="137.3" cy="394" r="3"/>
	<path class="st3" d="M171.5,393.5c0,1.7-1.3,3-3,3s-3-1.3-3-3s1.3-3,3-3S171.5,391.8,171.5,393.5z"/>
	<path class="st3" d="M170.6,342.5c0,1.7-1.3,3-3,3s-3-1.3-3-3s1.3-3,3-3S170.6,340.9,170.6,342.5z"/>
	<path class="st9" d="M172.3,240.3c0,0,4,18.2,0.7,19.1c-10.1,2.7-23.9-9.6-24.9-11.7c-0.3-0.6-1.8-14.9-3-26.1
		c-0.8-7.2-1.4-13.1-1.4-13.1l28.8,10.7l-0.2,19.7L172.3,240.3z"/>
	<path class="st3" d="M172.5,219.2l-0.2,19.7c-11.1-1.7-21-8-27.2-17.4c-0.8-7.2-1.4-13.1-1.4-13.1l3.6,1.2L172.5,219.2z"/>
	<path class="st9" d="M195.9,189.8c4,34.4-16.2,40.7-23.6,41.5c-6.7,0.8-29.8,2.6-37.3-31.3s7.2-46.6,22.5-49.1
		S192,155.4,195.9,189.8z"/>
	<path class="st3" d="M189.7,187.1c-0.8-0.1-1.6-0.2-2.4-0.4c-0.8,0-1.7-0.3-2.3-0.9c-0.4-0.4-0.4-1-0.1-1.5c0.8-0.8,1.9-1.1,3-0.9
		c1.1,0.1,2.1,0.6,2.9,1.5c0.5,0.6,0.4,1.4-0.2,1.8C190.4,187.1,190.1,187.2,189.7,187.1z"/>
	<path class="st3" d="M166.1,188.7c0.8-0.2,1.5-0.4,2.3-0.7c0.8-0.1,1.6-0.5,2.2-1.2c0.3-0.5,0.2-1.1-0.1-1.5
		c-0.9-0.7-2-0.8-3.1-0.4c-1.1,0.3-2,0.9-2.7,1.8c-0.4,0.6-0.2,1.4,0.5,1.8C165.5,188.7,165.8,188.7,166.1,188.7z"/>
	<path class="st3" d="M171.7,195.1c0-0.1-0.2,0.1-0.2,0.2c0.2,2.3,0.1,5.1-2,6c-0.1,0-0.1,0.1,0,0.1
		C172.2,200.9,172.3,197.3,171.7,195.1z"/>
	<path class="st3" d="M169.4,192.8c-3.8,0-3.6,7.6-0.1,7.6S172.6,192.8,169.4,192.8z"/>
	<path class="st3" d="M168,193.3c-0.6,0.4-1.3,1.2-2.1,1.3s-1.6-0.6-2.3-1.4c-0.1-0.1-0.1,0-0.1,0.1c0,1.5,0.6,2.9,2.2,3.1
		s2.4-1.2,2.7-2.6C168.5,193.5,168.2,193.1,168,193.3z"/>
	<path class="st3" d="M184.8,194.1c0-0.1,0.2,0.1,0.2,0.2c0,2.4,0.3,5.1,2.5,5.8c0.1,0,0.1,0.1,0,0.1
		C184.9,200,184.4,196.4,184.8,194.1z"/>
	<path class="st3" d="M186.9,191.6c3.8-0.4,4.3,7.2,0.7,7.6S183.7,191.9,186.9,191.6z"/>
	<path class="st3" d="M188.5,192c0.6,0.4,1.3,1.1,2,1.1s1.4-0.9,1.9-1.7c0.1-0.1,0.1,0,0.1,0.1c0.1,1.4-0.3,3-1.6,3.4
		s-2.3-0.9-2.7-2.3C188.1,192.3,188.2,191.9,188.5,192z"/>
	<path class="st3" d="M171.8,213.7c0.6,0.6,1.1,1.3,2,1.4c0.9,0,1.7-0.2,2.5-0.6c0,0,0.1,0,0.1,0c0,0,0,0.1,0,0.1
		c-0.7,0.9-1.8,1.4-3,1.2c-1-0.3-1.7-1.1-1.8-2.1C171.5,213.7,171.7,213.6,171.8,213.7z"/>
	<path class="st3" d="M181.3,204.8c0,0,0.6,3.5,0.7,5.2c0,0.1-0.4,0.2-0.9,0.3c0,0,0,0-0.1,0c-2.9,0.6-5.9-0.4-7.8-2.6
		c-0.1-0.1,0-0.2,0-0.2c0.1,0,0.1,0,0.2,0c2.2,1.4,4.7,2,7.3,1.8c0.1-0.5-1.3-5.9-1-6c1.3,0.1,2.6,0.3,3.8,0.7
		c-1.1-7.3-3.4-14.4-4.4-21.7c0-0.1,0.1-0.2,0.2-0.2c0.1,0,0.2,0,0.2,0.1c2.9,7.3,4.4,15.7,5.7,23.2
		C185.4,206.1,182,205,181.3,204.8z"/>
	<path class="st3" d="M180.2,209.5c-0.8,1.3-1.9,2.4-3.2,3.1c-0.7,0.4-1.6,0.5-2.4,0.4c-1.8-0.3-2-1.8-1.9-3.2
		c0.1-0.7,0.3-1.5,0.5-2.2C175.3,209,177.7,209.6,180.2,209.5z"/>
	<path class="st12" d="M177,212.6c-0.7,0.4-1.6,0.5-2.4,0.4c-1.8-0.3-2-1.8-1.9-3.2C174.6,209.8,176.6,210.9,177,212.6z"/>
	<path class="st3" d="M134.7,200.4c5.8,0.4,7.2-11.8,7.2-11.8s11.8,0,15.7-17c0,0-0.3,7.9-5.2,14.1c0,0,20.9-2.2,29.6-19.7
		c0,0-3.5,8.9-6.8,12.1c0,0,8.8-2.4,13-9.6c0,0,3.7,10.1,6.5,12.9c0,0-0.9-36.5-34.7-32.6c0,0-21.2,1.4-28.8,18.2
		S134.7,200.4,134.7,200.4z"/>
	<path class="st9" d="M140.8,202.1c0,0-7.9-10.6-12.7-7.8s1.3,18.3,7.1,20.3c3,1.2,6.4-0.2,7.7-3.2c0-0.1,0.1-0.1,0.1-0.2
		L140.8,202.1z"/>
	<path class="st3" d="M130,198.7C130,198.7,129.9,198.8,130,198.7c-0.1,0.1,0,0.2,0,0.2c4.1,1.5,6.3,5.2,7.9,9
		c-1.2-1.4-2.9-2.2-4.9-0.7c-0.1,0.1,0,0.2,0.1,0.2c1.4-0.5,3,0,4,1.1c0.8,1,1.4,2,2,3.1c0.2,0.4,0.8,0.1,0.7-0.3v-0.1
		C139.8,206.2,135.6,199.1,130,198.7z"/>
	<path class="st13" d="M138.5,213c0,0.7-0.5,1.2-1.2,1.2c0,0,0,0,0,0c-0.7,0-1.2-0.5-1.2-1.2c0-0.7,0.5-1.2,1.2-1.2c0,0,0,0,0,0
		C137.9,211.8,138.5,212.3,138.5,213z"/>
	<path class="st13" d="M135.1,210.9c0,0.4-0.3,0.8-0.8,0.8s-0.8-0.3-0.8-0.8s0.3-0.8,0.8-0.8c0,0,0,0,0,0
		C134.7,210.2,135.1,210.5,135.1,210.9z"/>
	<path class="st5" d="M130.3,187.1c-0.4-0.3-37.8-51.8-41-56.5c-1.4-2.1,10-35,28.9-44c13.7-6.6,38.5-1.2,43.1,0.9
		c5.4,2.4,26.3,68.8,26.3,68.8l-32.6,13.4L130.3,187.1z"/>
	<g class="st14">
		<path d="M132.7,177.4c-0.7-0.6-1.3-1.3-1.8-2.2c-0.6-0.8-1.1-1.6-1.7-2.4c-1.2-1.5-2.5-3-3.9-4.4c-1-1.2-2.4-2.1-4-2.4
			c-0.7-0.1-1.4,0.1-2,0.4c-0.4,0.2-0.8,0.4-1.1,0.7c-0.2,0.3-0.3,0.7-0.6,1c-0.1,0.1,0.1,0.2,0.2,0.1c0.1-0.5,0.5-0.9,0.9-1.1
			c0.4-0.2,0.7-0.3,1.1-0.4c0.8-0.2,1.7,0,2.4,0.4c1.4,0.9,2.6,2,3.6,3.3c1.1,1.3,2.2,2.5,3.4,3.8s1.9,2.7,3.3,3.4
			C132.6,177.7,132.8,177.5,132.7,177.4z"/>
		<path d="M136.5,177c-2.3-3.2-4.7-6.5-7-9.7c-2.5-3.2-4.6-6.6-6.3-10.3c0-0.1-0.2,0-0.2,0.1c1.4,3.8,3.2,7.4,5.5,10.8
			c2.4,3.3,5,6.4,7.8,9.3c0,0,0.1,0,0.2,0S136.6,177,136.5,177z"/>
		<path d="M146.2,167c-2.1-2.7-4.4-5.2-6.8-7.7c-2-2.2-4.3-4.2-6.9-5.8c-0.1-0.1-0.2,0.1-0.1,0.2c2.5,1.8,4.3,4.3,6.4,6.6
			c2.2,2.5,4.5,5,6.9,7.2c0.1,0.1,0.3,0.1,0.5,0C146.3,167.3,146.3,167.1,146.2,167z"/>
		<path d="M154.3,135.6c-1.8-0.8-3.8,0.1-4.6,1.8c-0.1,0.2-0.2,0.4-0.2,0.6c-0.6,2.5,0.4,5.4,1.3,7.7c0.9,2.5,2.2,5,3.7,7.2
			c1.7,2.5,3.8,4.8,6.1,6.8c0.1,0.1,0.2,0,0.1-0.1c-3.2-3.6-5.8-7.7-7.6-12.1c-0.9-2.2-1.6-4.4-2.1-6.8c-0.4-1.9,0-5.3,2.7-5
			c2.6,0.3,3.9,3.3,5.8,4.8c0,0,0.1,0,0-0.1C157.6,139.1,156.7,136.6,154.3,135.6z"/>
		<path d="M173.4,133.8c-1.2,3.8-1.1,7.9,0.3,11.7c0.7,2.1,1.7,4.1,2.8,6c1.1,2,2.3,3.9,3.8,5.7c0,0,0.1,0,0.1,0c0,0,0-0.1,0-0.1
			c-0.8-2-2.1-3.8-3-5.7c-0.9-2-1.7-4-2.3-6.1c-0.5-1.8-0.9-3.7-1.1-5.6c-0.2-1.9-0.3-3.9-0.1-5.8
			C173.9,133.7,173.5,133.5,173.4,133.8z"/>
		<path d="M168.6,148.7c-1.3-3.2-2.9-6.2-4.7-9.2c-0.1-0.1-0.3-0.2-0.4-0.1c-0.1,0.1-0.1,0.2-0.1,0.3c1.5,3.1,2.8,6.2,4.1,9.4
			s2.4,6.4,3.9,9.4c0.1,0.1,0.2,0,0.2-0.1C171,155.1,170,151.8,168.6,148.7z"/>
	</g>
	<path class="st5" d="M187,149c-2.2-0.8-28.8,0.3-38.1,6c-8.2,5.1-22.7,19.3-26.3,25.2c-0.6,1,6,11.5,8.1,12.4
		c1.3,0.5,17.7-14.1,26.9-20.1c7.8-5.1,28-7,33.1-7.3C191.6,165.1,188.3,149.4,187,149z"/>
	<path class="st7" d="M187,149c-2.2-0.8-28.8,0.3-38.1,6c-8.2,5.1-22.7,19.3-26.3,25.2c-0.6,1,6,11.5,8.1,12.4
		c1.3,0.5,17.7-14.1,26.9-20.1c7.8-5.1,28-7,33.1-7.3C191.6,165.1,188.3,149.4,187,149z"/>
	<path class="st5" d="M166.7,263.5c0,0-1.4-9.5-2.2-10.3s-12.2-6.2-17.6-14.8c-1.4-2.2-6.7,5.5-6.7,5.5s4,10.9,13.3,16.8
		s20.3,4.6,22.7,3c0.8-0.5-1.9-16.3-2.1-15.6c-0.7,1.9-1.8,3.6-3.2,5c-0.4,0.4,1.2,9.7,1.2,9.7L166.7,263.5z"/>
	<path class="st9" d="M128.2,249.9C108.9,265.8,50.4,330,54.1,351c2.7,15.6,19.9,20.3,34.8,13.7c12.9-5.7,42.9-74.6,51.2-94
		C147.8,252.2,147.2,234.3,128.2,249.9z"/>
	<path class="st5" d="M128.2,249.9C108.9,265.8,50.4,330,54.1,351c2.7,15.6,19.9,20.3,34.8,13.7c12.9-5.7,42.9-74.6,51.2-94
		C147.8,252.2,147.2,234.3,128.2,249.9z"/>
	<path class="st3" d="M138.3,276.1c0-0.1,0-0.1-0.1-0.1c-0.1,0-0.1,0-0.2,0.1c-2.1,4.9-4.3,9.8-6.5,14.6s-4.4,9.7-6.7,14.5
		c-4.5,9.6-9.3,19.1-14.4,28.5c-1.4,2.6-2.9,5.2-4.3,7.8s-3,5.2-4.4,7.9c0,0.1,0.1,0.1,0.1,0.1c1.6-2.2,3-4.5,4.4-6.7
		s2.8-4.5,4.1-6.8c2.7-4.6,5.3-9.2,7.8-13.9s5-9.5,7.3-14.4c1.9-3.9,3.7-7.9,5.4-11.9c0.4-0.5,0.8-1.1,1.1-1.6
		c0.7-1.1,1.5-2.3,2.2-3.4c1.4-2.3,2.7-4.6,4-6.9c0.1-0.1-0.2-0.3-0.3-0.1c-1.4,2.2-3,4.4-4.3,6.7l-1.7,2.9l0,0
		C134.3,287.5,136.4,281.8,138.3,276.1z"/>
	<path class="st9" d="M58.7,359.9c-12.7-13.8,4-28.4,17.1-28.8c30.7-1,75.3,7.3,99.9,15.9c8.4,2.9,10.5,51.3,0.9,51
		C159.6,397.5,84.5,387.8,58.7,359.9z"/>
	<path class="st9" d="M163.5,343.5c0,0,3.2,0.5,20.6,0.1c12-0.3,41.5,6.8,54.5,38c5,12-1.2,20.7-8.6,9.2
		c-5.2-8.1-8.1-14.2-10.6-16.4c0,0-1.5,14.7-8.9,18.9c-6.5,3.7-13.3,6.9-20.2,9.7c-0.8-1.2-1.5-2.4-2.1-3.6
		c-6.3,2.9-13.7,1.9-19-2.6L163.5,343.5z"/>
	<path class="st9" d="M195.7,345.2c4.8,4,15,12.8,20.8,22.8c6.4,11.1,15.8,34.4,7.5,39c-6.1,3.4-10.4-5.1-10.4-5.1
		s1.9,10.4-4.3,12.3c-5.6,1.7-8.6-5.1-8.6-5.1s0,6.5-5.7,7.1c-6.9,0.7-5.8-13-13.5-18.3C179.8,396.8,195.7,345.2,195.7,345.2z"/>
	<path class="st3" d="M203.5,372.9c3.9,4.5,10.2,17.2,10.2,28.8c0,0.3-0.2,0.4-0.3,0.2C211.3,391.8,207.9,382.1,203.5,372.9
		C203.4,372.9,203.5,372.8,203.5,372.9z"/>
	<path class="st3" d="M192.4,379.7c3,4.3,8.9,17.6,8.4,29.4c0,0.3-0.2,0.4-0.3,0.1c-1.6-10.1-4.4-20-8.3-29.5
		C192.3,379.7,192.4,379.6,192.4,379.7z"/>
	<path class="st5" d="M160.2,336.9l-9.3,33l-1.4,31.1c0,0-98-24.6-95.6-51.8c0.8-9.2,9.6-21.4,30-22.1S160.2,336.9,160.2,336.9z"/>
	<path class="st3" d="M160.5,337.7c-2.1-0.6-4.2-1.3-6.3-1.8s-4.2-1.1-6.3-1.5c-4.2-1-8.5-1.8-12.8-2.5c-8.5-1.4-17-2.4-25.5-3
		c-3.1-1-6.4-1.7-9.6-2.6c-0.1,0-0.1,0.1,0,0.1c2.6,0.7,5.2,1.6,7.8,2.3c-2-0.1-4-0.2-5.9-0.3c-2.4-0.1-4.8,0-7.2,0
		c-0.1,0-0.1,0.1,0,0.1c2.1,0.1,4.3,0.4,6.4,0.6s4.4,0.4,6.5,0.6c4.3,0.4,8.6,0.9,12.9,1.5c8.6,1.1,17.1,2.4,25.6,4.1
		c2.4,0.5,4.8,0.9,7.1,1.4s4.8,0.9,7.2,1.4C160.7,338.1,160.7,337.7,160.5,337.7z"/>
	<path class="st3" d="M147.1,400.2c-4.1-1.2-8.1-2.5-12.2-3.8s-8.2-2.5-12.3-3.9c-8.2-2.8-16.2-5.9-24.3-8.9
		c-4.7-1.8-9.4-3.3-14.1-5.1c-0.1,0-0.2,0.1-0.1,0.2c2,0.9,4.1,1.8,6.1,2.7s4,1.7,6,2.6c4,1.8,8.1,3.4,12.2,5c8,3.2,16.2,6,24.5,8.4
		c4.6,1.3,9.3,2.3,14.1,3.3C147.2,400.6,147.3,400.3,147.1,400.2z"/>
	<path class="st5" d="M165.2,337c-0.2-0.3-17.8-2.8-17.8-2.8s-14,30.6-13.8,34.2s1.4,30.8,1.7,31.2s21.5,5.3,21.9,4.7
		s0.1-30,0.1-32.3S165.2,337,165.2,337z"/>
	<path class="st7" d="M165.1,337c-0.2-0.3-17.8-2.8-17.8-2.8s-13.9,30.6-13.7,34.2s1.5,30.8,1.8,31.1s21.6,5.2,22,4.6s0.1-30,0-32.3
		S165.1,337,165.1,337z"/>
</g>
<g id="freepik--Tools--inject-31" class="st0">
	<path class="st5" d="M448.1,384.9v42.7c0,3-1.1,5.5-2.5,5.5h-16.4h-16.5c-1.4,0-2.5-2.5-2.5-5.5v-42.8c0-3,1.1-5.5,2.5-5.5h1.5v-4
		h14.9l0,0H444v4h1.5C446.9,379.4,448.1,381.9,448.1,384.9z"/>
	<rect x="413.1" y="368.8" class="st15" width="32" height="7.2"/>
	<rect x="410.1" y="394" class="st1" width="37.9" height="27"/>
	<path class="st6" d="M405.9,425.7c0,5.6-2.1,7.5-3.2,7.5h-9.4h-8.8c-1.1,0-3.2-1.9-3.2-7.5c0-6.6,4.8-10.6,4.8-14.3
		c0-2.4-2.3-9.7-1.3-9.7h17.6c1,0-1.3,7.3-1.3,9.7C401.1,415.1,405.9,419,405.9,425.7z"/>
	<path class="st15" d="M386.1,396.8l14.9,0c1.2,0,2.2,1,2.2,2.1l0,4.4c0,0.1-0.1,0.2-0.1,0.2l-18.9,0c-0.1,0-0.2-0.1-0.2-0.1l0-4.4
		C384,397.8,384.9,396.8,386.1,396.8z"/>
	<path class="st1" d="M111.9,388.4l-4.3-3.4c3.3-4.1,7-9.3,7.6-10.9c-0.6-4.1-4.5-17.7-6.9-19.6h-16V349h16.3
		c7.8,0,12.1,24.5,12.1,24.7C120.8,374.7,121.1,376.9,111.9,388.4z"/>
	<path class="st1" d="M84.1,424.7c-27.7,0-34.4-18-31.6-30.6s22.1-23.4,22.3-27.5s0-22.6-1-23.9s-7.3-3.7-9-3.7s-1.7-2.1,0-2.1h31.9
		c1.7,0,1.7,2.1,0,2.1s-2.8,2.1-3.1,4.3c-0.2,1.6-0.5,19.8-0.1,23.2c0.6,4.1,19.5,14.9,22.3,27.5S111.8,424.7,84.1,424.7z"/>
	<path class="st5" d="M83.4,420.4c-23.3,0-28.9-15.1-26.6-25.7s21.9-22.5,21.5-25.9c-0.1-0.7-0.1-14.2-0.2-15.6h11.6
		c0,1.5,0.1,15,0.2,15.6c0.5,3.4,17.8,15.3,20.1,25.9S106.7,420.4,83.4,420.4z"/>
	<path class="st10" d="M190.6,423.4c-0.1,3.1-1.5,6.1-3.8,8.1c-5,4.8-13.7,7.4-22.9,6.9c-6.2-0.3-14.2-3-21.9-5.6
		s-15.3-5.1-20.4-5.1l-60.2,0.6v-3.7h1.4v2.3l58.8-0.5c5.3,0,12.9,2.5,20.8,5.2c7.6,2.6,15.6,5.3,21.6,5.6
		c8.8,0.5,17.1-2.1,21.8-6.5c2.1-1.8,3.3-4.4,3.4-7.1L190.6,423.4z"/>
	<path class="st10" d="M190,420.1c0.4,1,0.6,2.1,0.6,3.3h-1.4c-0.2-2.7-1.4-5.3-3.5-7c-4.8-4.4-13.2-6.8-21.9-6.1
		c-6,0.4-13.9,3.2-21.5,6c-7.9,2.8-15.4,5.5-20.7,5.6l-58.8,0.5v2.3h-1.4V421l60.2-0.6c5.1,0,12.5-2.7,20.3-5.5s15.6-5.6,21.8-6
		c9.1-0.6,18,1.9,23,6.5C188.1,416.7,189.2,418.3,190,420.1z"/>
	<path class="st10" d="M190.6,423.4c0,1.5-0.7,3-1.9,4c-4.1,4-14.1,6.5-24.8,6.2c-6.2-0.2-14.1-1.9-21.9-3.6s-15.3-3.3-20.4-3.3
		l-60.2,0.6v-2.6h1.4v1.2l58.8-0.5c5.3,0,12.8,1.6,20.7,3.3c7.6,1.7,15.6,3.4,21.6,3.6c10.2,0.3,20-2.1,23.8-5.8
		c0.9-0.8,1.4-1.8,1.5-3H190.6z"/>
	<path class="st10" d="M190.3,421.8c0.2,0.5,0.3,1,0.3,1.5v0.7l-129.3,1.2v-3.4l60.2-0.6c5.1,0,12.5-1.8,20.3-3.6
		c7.7-1.8,15.6-3.7,21.8-4c10.7-0.5,20.8,1.8,24.9,5.7C189.4,420.1,189.9,420.9,190.3,421.8z M189.1,422.7c-0.3-0.9-0.8-1.6-1.4-2.2
		c-3.9-3.6-13.7-5.8-23.9-5.3c-6,0.3-13.9,2.2-21.5,4c-7.9,1.9-15.4,3.6-20.7,3.7l-58.8,0.5v0.5L189.1,422.7z"/>
	<polygon class="st15" points="58.6,430.7 106.2,430.2 106.1,418.1 58.2,418.6 	"/>
</g>
</svg>
